<svg width="714" height="103" viewBox="0 0 714 103" fill="none" xmlns="http://www.w3.org/2000/svg">
<path d="M10.5 31.2C7.5 45.5 13 55.4 32 58.3L62.9 63.0999C73.6 64.8999 77.2 66.6 76.1 71.7C74.3 79.8 65.2 81.7 57.2 81.7C48.9 81.7 44 80.5 41.3 78.5C38.5 76.5 38 73.5 38.4 69.9H0.600004C-3.3 96.5 18.9 102.3 51.3 102.3C64.4 102.3 106.6 102.1 113.4 69.7C117 52.9 107.8 45.6 90.7 42.5C81.7 40.9 58.1 37.3 50.3 35.9C45.6 35.1 43.7 33.2 44.4 30C45.8 23.7 52.3 20.7 63 20.6C70.4 20.6 75.1 21.7 77.9 23.7C80.7 25.7 81.7 28.4 81.4 31.7H117.5C120.3 9.09995 101.2 0.799951 66.5 0.699951C24.7 0.899951 13.2 18.7 10.5 31.2Z" fill="white"/>
<path d="M154.7 45.7H173.4L177.4 27H158.7L163.7 4H135.3L119 80.9C115.6 96.6 122.2 101.1 140.7 101.1C149 101.1 156.6 100.6 162.6 99.8L166.4 82.1C162.5 82.2 159.7 82.4 156.2 82.4C148.6 82.4 147.2 81.5 148.6 74.9L154.7 45.7Z" fill="white"/>
<path d="M238.4 92.8999C238 94.8999 237.9 97.4999 238.4 99.5999H266.8C265.5 95.4999 265.3 92.5999 266.7 86.4999L274.5 49.7999C278.8 29.4999 259.9 25.0999 233.6 25.0999C211.4 25.0999 190.2 28.0999 183 49.6999H211.4C214.1 43.4999 219.8 40.5999 230.3 40.5999C242.7 40.5999 247.6 43.2999 246.5 48.3999C245.7 52.0999 244.2 53.6999 236.7 54.2999L208 56.1999C187.4 57.4999 175.1 63.3999 171.6 79.8999C168.4 94.9999 179.1 102.5 202.2 102.5C216.5 102.5 228.5 100.7 238.4 92.8999ZM202.9 77.2999C203.8 72.8999 206.8 70.5999 212.7 69.9999L232.4 67.6999C237.7 66.9999 241.4 66.3999 243.6 65.6999L242.7 70.0999C240.6 79.9999 230.1 86.0999 213.8 86.0999C206.1 86.1999 201.6 82.9999 202.9 77.2999Z" fill="white"/>
<path d="M342.6 60.4999L334.3 99.6999H362.7L372.8 51.9999C376.7 33.8999 365.5 25.3999 347.7 25.3999C333.4 25.3999 321.9 30.5999 314.6 37.6999H314.3L316.4 27.2999H288.9L273.4 99.7999H301.8L309.5 64.1999C311.9 52.2999 320.7 46.7999 330.8 46.7999C340.3 46.6999 344.6 51.2999 342.6 60.4999Z" fill="white"/>
<path d="M449.8 36.4999C446.5 29.4999 437.6 25.3999 425 25.3999C398.4 25.3999 379.2 42.2999 374.8 63.2999C369.4 88.3999 383.1 102.6 408.8 102.7C420.3 102.7 431.3 98.5999 438.9 91.1999H439.2L437.3 99.7999H464.9L485.8 2.09985H457.4L450.1 36.4999H449.8ZM444.2 63.6999C441.9 74.9999 433.3 82.1999 420.1 82.1999C407.1 82.1999 401.4 75.7999 403.9 63.6999C406.6 51.6999 415 45.1999 428 45.2999C441.3 45.1999 446.6 52.3999 444.2 63.6999Z" fill="white"/>
<path d="M577 68.1999C583.5 37.9999 567.1 24.3999 536.1 24.3999C506 24.3999 483.2 37.6999 477.7 63.3999C471.9 90.2999 487.4 102.7 520.1 102.8C551 102.8 567.5 90.3999 573.5 78.3999H543.5C539.2 82.6999 533.7 86.5999 524.6 86.5999C510 86.5999 504.8 79.6999 505.3 70.3999L576.5 70.4999L577 68.1999ZM508.6 55.5999C512 47.5999 519.5 40.7999 532.8 40.7999C546.2 40.7999 550.7 47.6999 550.6 55.6999L508.6 55.5999Z" fill="white"/>
<path d="M659.1 26.3999C656.4 25.8999 652.7 25.5999 649.6 25.5999C636.8 25.5999 624.3 32.0999 616.5 41.6999H616.3L619.4 27.3999H591.4L576 99.8999H604.4L610.5 71.7999C613.2 58.6999 622.3 50.3999 638.5 50.3999C643.8 50.3999 648.5 50.1999 653.6 50.9999L659.1 26.3999Z" fill="white"/>
<path d="M690.5 46.2H709.2L713.2 27.5H694.5L699.5 4.5H671.1L654.7 81.4C651.4 97.1 657.9 101.6 676.4 101.6C684.7 101.6 692.3 101.1 698.3 100.3L702.1 82.6C698.2 82.7 695.4 82.9 691.9 82.9C684.3 82.9 682.9 82 684.3 75.4L690.5 46.2Z" fill="white"/>
</svg>
